<svg width="106" height="9" viewBox="0 0 106 9" fill="none" xmlns="http://www.w3.org/2000/svg">
<path d="M3.35961 4.44637L3.06723 4.41263V6.60554C3.06723 6.83795 3.07472 7.02163 3.08972 7.15657C3.10471 7.29152 3.1422 7.38898 3.20217 7.44896C3.26965 7.50894 3.37461 7.55392 3.51705 7.58391C3.66699 7.6064 3.87317 7.62889 4.13556 7.65138C4.15806 7.77134 4.15806 7.89129 4.13556 8.01125C3.98562 8.01125 3.80569 8.0075 3.59577 8C3.38585 8 3.17593 8 2.96601 8C2.7561 7.9925 2.57991 7.98875 2.43747 7.98875C2.30252 7.98875 2.12634 7.9925 1.90892 8C1.6915 8 1.47409 8 1.25667 8C1.03926 8.0075 0.855576 8.01125 0.705634 8.01125C0.683142 7.89879 0.683142 7.77884 0.705634 7.65138C1.0655 7.6214 1.32415 7.59141 1.48159 7.56142C1.63902 7.52393 1.73649 7.44896 1.77397 7.33651C1.81146 7.21655 1.8302 7.02163 1.8302 6.75173V1.51125C1.8302 1.20386 1.80771 0.982698 1.76273 0.84775C1.72524 0.712802 1.62778 0.622837 1.47034 0.577854C1.3129 0.532872 1.058 0.499135 0.705634 0.476643C0.683142 0.364186 0.683142 0.244233 0.705634 0.116781C0.848079 0.116781 1.03176 0.12053 1.25667 0.128027C1.48908 0.128027 1.714 0.131775 1.93141 0.139272C2.15633 0.139272 2.32126 0.139272 2.42622 0.139272C2.56117 0.139272 2.7336 0.139272 2.94352 0.139272C3.16094 0.131775 3.37461 0.124278 3.58453 0.116781C3.80194 0.109284 3.97063 0.105536 4.09058 0.105536C4.5629 0.105536 5.00148 0.169261 5.40633 0.296712C5.81867 0.424163 6.14854 0.634082 6.39595 0.92647C6.65085 1.21136 6.7783 1.59746 6.7783 2.08477C6.7783 2.56459 6.6321 2.99193 6.33972 3.36678C6.05483 3.74164 5.60125 4.02278 4.97899 4.21021V4.24394C5.09145 4.33391 5.2189 4.48385 5.36134 4.69377L6.54214 6.40311C6.73706 6.68051 6.89825 6.89792 7.0257 7.05536C7.16065 7.2128 7.2881 7.33276 7.40806 7.41522C7.52801 7.4902 7.66671 7.54268 7.82415 7.57266C7.98159 7.60265 8.18026 7.62889 8.42017 7.65138C8.44266 7.77134 8.44266 7.89129 8.42017 8.01125C8.27772 8.01125 8.10154 8.0075 7.89162 8C7.6817 8 7.47928 8 7.28435 8C7.08943 7.9925 6.93199 7.98875 6.81204 7.98875C6.69208 7.98875 6.58712 7.9925 6.49716 8C6.40719 8 6.30223 8 6.18228 8L4.10183 4.92993C3.97438 4.73501 3.86192 4.6113 3.76446 4.55882C3.66699 4.49885 3.53205 4.46136 3.35961 4.44637ZM3.06723 3.95156C3.16469 3.96655 3.2509 3.9778 3.32588 3.98529C3.40085 3.99279 3.47207 3.99654 3.53954 3.99654C4.12432 3.99654 4.58539 3.8466 4.92276 3.54671C5.26763 3.24683 5.44006 2.8045 5.44006 2.21972C5.44006 1.68743 5.29012 1.27883 4.99024 0.993944C4.69785 0.709054 4.26302 0.566609 3.68574 0.566609C3.61077 0.566609 3.51705 0.570357 3.4046 0.577854C3.29964 0.585351 3.18718 0.596597 3.06723 0.611591V3.95156ZM8.53667 8.01125C8.52167 7.89879 8.52167 7.77884 8.53667 7.65138C8.88903 7.6139 9.14018 7.58016 9.29013 7.55017C9.44007 7.51269 9.53378 7.43772 9.57127 7.32526C9.60875 7.20531 9.6275 7.01413 9.6275 6.75173V1.52249C9.6275 1.20761 9.60875 0.982698 9.57127 0.84775C9.53378 0.712802 9.43632 0.626585 9.27888 0.5891C9.12894 0.544117 8.88153 0.506632 8.53667 0.476643C8.52167 0.364186 8.52167 0.244233 8.53667 0.116781C8.73159 0.116781 8.90028 0.12053 9.04272 0.128027C9.19266 0.128027 9.34261 0.128027 9.49255 0.128027C9.64249 0.128027 9.82242 0.131775 10.0323 0.139272C10.2423 0.139272 10.5084 0.139272 10.8308 0.139272C11.4231 0.139272 11.9778 0.139272 12.4951 0.139272C13.0124 0.131775 13.4435 0.128027 13.7884 0.128027C14.1333 0.12053 14.3357 0.116781 14.3957 0.116781C14.4257 0.394175 14.4594 0.679065 14.4969 0.971453C14.5419 1.26384 14.5906 1.57497 14.6431 1.90484C14.5156 1.91984 14.3919 1.91984 14.272 1.90484C14.182 1.67993 14.077 1.48126 13.9571 1.30882C13.8371 1.13639 13.7134 1.00519 13.586 0.915224C13.4435 0.810264 13.2711 0.731545 13.0687 0.679065C12.8737 0.626585 12.6301 0.600345 12.3377 0.600345H10.8645V3.67041H11.483C11.8429 3.67041 12.1165 3.64792 12.304 3.60294C12.4914 3.55046 12.6301 3.44175 12.7201 3.27682C12.81 3.10438 12.8812 2.83449 12.9337 2.46713C13.0687 2.44464 13.1961 2.44464 13.3161 2.46713C13.3086 2.797 13.3011 3.0519 13.2936 3.23183C13.2936 3.40427 13.2936 3.53172 13.2936 3.61419C13.2936 3.69665 13.2936 3.76413 13.2936 3.81661C13.2936 3.86159 13.2936 3.89908 13.2936 3.92907L13.3161 5.41349C13.2036 5.43599 13.0762 5.43599 12.9337 5.41349C12.8887 5.01615 12.8213 4.73126 12.7313 4.55882C12.6413 4.38639 12.5064 4.27768 12.3265 4.2327C12.154 4.18772 11.9066 4.16522 11.5842 4.16522H10.8645V6.60554C10.8645 6.86044 10.8645 7.06661 10.8645 7.22405C10.872 7.37399 10.8795 7.47145 10.887 7.51644H12.4277C12.8025 7.51644 13.1024 7.48645 13.3273 7.42647C13.5597 7.359 13.7509 7.26153 13.9009 7.13408C14.0058 7.05161 14.1295 6.90917 14.272 6.70675C14.4144 6.49683 14.5494 6.25692 14.6768 5.98702C14.7968 5.97203 14.913 5.97203 15.0254 5.98702C14.9504 6.40686 14.8867 6.78547 14.8342 7.12284C14.7818 7.46021 14.7368 7.7526 14.6993 8C14.3619 8 13.9946 8 13.5972 8C13.1999 8 12.8025 8 12.4052 8C12.0078 7.9925 11.6442 7.98875 11.3143 7.98875C10.992 7.98875 10.7333 7.98875 10.5384 7.98875C10.186 7.98875 9.89739 7.9925 9.67248 8C9.45506 8 9.26014 8 9.0877 8C8.92277 8.0075 8.73909 8.01125 8.53667 8.01125ZM17.473 0.139272C17.7054 0.139272 17.9716 0.135524 18.2715 0.128027C18.5713 0.12053 18.8188 0.116781 19.0137 0.116781C20.4906 0.116781 21.6077 0.43166 22.3649 1.06142C23.1221 1.69118 23.5007 2.60957 23.5007 3.81661C23.5007 4.70127 23.3058 5.45848 22.9159 6.08824C22.5336 6.7105 22.0013 7.18656 21.319 7.51644C20.6368 7.84631 19.8534 8.01125 18.9687 8.01125C18.8637 8.01125 18.7175 8.0075 18.5301 8C18.3427 8 18.1515 8 17.9566 8C17.7617 7.9925 17.5967 7.98875 17.4618 7.98875C17.3418 7.98875 17.1731 7.9925 16.9557 8C16.7383 8 16.5171 8 16.2922 8C16.0673 8.0075 15.8799 8.01125 15.7299 8.01125C15.7149 7.89879 15.7149 7.77884 15.7299 7.65138C16.0823 7.6139 16.3335 7.58016 16.4834 7.55017C16.6333 7.51269 16.7271 7.43772 16.7645 7.32526C16.802 7.2128 16.8208 7.02163 16.8208 6.75173V1.52249C16.8208 1.20761 16.802 0.982698 16.7645 0.84775C16.7271 0.712802 16.6296 0.626585 16.4722 0.5891C16.3222 0.544117 16.0748 0.506632 15.7299 0.476643C15.7149 0.364186 15.7149 0.244233 15.7299 0.116781C15.8874 0.116781 16.0748 0.12053 16.2922 0.128027C16.5096 0.128027 16.7233 0.131775 16.9332 0.139272C17.1506 0.139272 17.3306 0.139272 17.473 0.139272ZM18.0578 0.634082V6.60554C18.0578 6.79296 18.0578 6.9504 18.0578 7.07785C18.0578 7.20531 18.0615 7.31027 18.069 7.39273C18.4289 7.49769 18.8 7.55017 19.1824 7.55017C19.8346 7.55017 20.3782 7.39648 20.813 7.0891C21.2553 6.78172 21.5852 6.36188 21.8026 5.82958C22.0275 5.29729 22.14 4.69377 22.14 4.01903C22.14 2.96943 21.8701 2.13351 21.3303 1.51125C20.798 0.888985 20.007 0.577854 18.9575 0.577854C18.77 0.577854 18.5901 0.585351 18.4177 0.600345C18.2527 0.61534 18.1328 0.626585 18.0578 0.634082ZM29.4881 6.29066L31.8946 0.128027C32.0521 0.135524 32.217 0.139272 32.3894 0.139272C32.5619 0.139272 32.7081 0.139272 32.828 0.139272C32.888 0.139272 32.9967 0.139272 33.1541 0.139272C33.3191 0.131775 33.4953 0.128027 33.6827 0.128027C33.8776 0.128027 34.0538 0.128027 34.2112 0.128027C34.3762 0.12053 34.4886 0.116781 34.5486 0.116781C34.5711 0.229238 34.5711 0.345443 34.5486 0.465398H34.5261C34.1813 0.502883 33.9301 0.540369 33.7727 0.577854C33.6152 0.607843 33.5178 0.682814 33.4803 0.802767C33.4503 0.915225 33.4353 1.10265 33.4353 1.36505L33.5253 6.61678C33.5253 6.84919 33.5328 7.03287 33.5477 7.16782C33.5627 7.30277 33.604 7.40023 33.6715 7.46021C33.7389 7.52018 33.8476 7.56517 33.9976 7.59516C34.1475 7.61765 34.3612 7.64014 34.6386 7.66263C34.6611 7.77509 34.6611 7.89129 34.6386 8.01125C34.5786 8.01125 34.4661 8.0075 34.3012 8C34.1438 8 33.9676 8 33.7727 8C33.5852 8 33.4091 8 33.2441 8C33.0867 7.9925 32.978 7.98875 32.918 7.98875C32.858 7.98875 32.7493 7.9925 32.5919 8C32.4344 8 32.262 8 32.0746 8C31.8871 8 31.7147 8 31.5573 8C31.3998 8.0075 31.2911 8.01125 31.2311 8.01125C31.2236 7.89879 31.2236 7.78258 31.2311 7.66263H31.2536C31.5835 7.62514 31.8234 7.59141 31.9734 7.56142C32.1233 7.52393 32.2133 7.44896 32.2433 7.33651C32.2807 7.21655 32.2995 7.02537 32.2995 6.76298L32.1983 0.735294L29.3644 7.98875C29.3119 8.01125 29.2294 8.02624 29.117 8.03374C29.0045 8.04123 28.907 8.04498 28.8246 8.04498L26.1593 0.971453L25.9794 6.76298C25.9719 7.01038 25.9832 7.19031 26.0131 7.30277C26.0431 7.40773 26.1331 7.4827 26.283 7.52768C26.433 7.57266 26.6841 7.61765 27.0365 7.66263C27.0665 7.78258 27.0665 7.89879 27.0365 8.01125C26.9615 8.01125 26.8303 8.0075 26.6429 8C26.463 8 26.2793 8 26.0919 8C25.9119 7.9925 25.7807 7.98875 25.6983 7.98875C25.6533 7.98875 25.5633 7.9925 25.4284 8C25.3009 8 25.1585 8 25.001 8C24.8436 8 24.6974 8 24.5625 8C24.435 8.0075 24.3488 8.01125 24.3038 8.01125C24.2888 7.89129 24.2888 7.77509 24.3038 7.66263C24.6562 7.61765 24.9073 7.57266 25.0573 7.52768C25.2072 7.4827 25.3009 7.39273 25.3384 7.25779C25.3834 7.12284 25.4096 6.90917 25.4171 6.61678L25.6308 1.36505C25.6458 1.10265 25.6345 0.915225 25.5971 0.802767C25.5596 0.690311 25.4584 0.61534 25.2934 0.577854C25.136 0.532872 24.8736 0.495386 24.5062 0.465398C24.4987 0.345443 24.4987 0.229238 24.5062 0.116781C24.7611 0.116781 25.0235 0.12053 25.2934 0.128027C25.5633 0.135524 25.8632 0.139272 26.1931 0.139272C26.3055 0.139272 26.4555 0.139272 26.6429 0.139272C26.8303 0.139272 27.0028 0.135524 27.1602 0.128027L29.4881 6.29066ZM34.6583 8.01125C34.6433 7.89129 34.6433 7.77134 34.6583 7.65138C34.8682 7.62889 35.0369 7.60265 35.1643 7.57266C35.2918 7.54268 35.4005 7.4902 35.4904 7.41522C35.5804 7.33276 35.6666 7.2128 35.7491 7.05536C35.8316 6.89043 35.929 6.66176 36.0415 6.36938L38.4705 0.139272C38.553 0.109284 38.6505 0.0867931 38.7629 0.0717986C38.8829 0.0568045 38.9841 0.0493075 39.0666 0.0493075L41.4844 6.47059C41.5893 6.74048 41.6756 6.95415 41.743 7.11159C41.8105 7.26153 41.8855 7.37024 41.9679 7.43772C42.0504 7.50519 42.1554 7.55392 42.2828 7.58391C42.4103 7.6064 42.5865 7.62889 42.8114 7.65138C42.8264 7.77134 42.8264 7.89129 42.8114 8.01125C42.549 8.01125 42.2791 8.0075 42.0017 8C41.7243 7.9925 41.4469 7.98875 41.1695 7.98875C40.8846 7.98875 40.596 7.9925 40.3036 8C40.0187 8.0075 39.7338 8.01125 39.4489 8.01125C39.4264 7.89879 39.4264 7.77884 39.4489 7.65138C39.8163 7.6139 40.0712 7.58016 40.2136 7.55017C40.3561 7.51269 40.4273 7.42272 40.4273 7.28028C40.4273 7.2203 40.416 7.15283 40.3936 7.07785C40.3711 7.00288 40.3411 6.90917 40.3036 6.79671L39.6626 5.06488H37.1323L36.57 6.61678C36.5175 6.75923 36.4763 6.87918 36.4463 6.97664C36.4238 7.06661 36.4126 7.14908 36.4126 7.22405C36.4126 7.38898 36.4876 7.49394 36.6375 7.53893C36.7949 7.57641 37.0498 7.6139 37.4022 7.65138C37.4172 7.77884 37.4172 7.89879 37.4022 8.01125C37.1473 8.01125 36.8961 8.0075 36.6487 8C36.4013 7.9925 36.1502 7.98875 35.8953 7.98875C35.6854 7.98875 35.4829 7.9925 35.288 8C35.0931 8.0075 34.8832 8.01125 34.6583 8.01125ZM37.301 4.59256H39.4939L38.3918 1.60121L37.301 4.59256ZM49.578 8.07872L44.5737 1.51125V6.32439C44.5737 6.60928 44.5812 6.83045 44.5962 6.98789C44.6112 7.13783 44.6562 7.25404 44.7311 7.33651C44.8061 7.41148 44.9223 7.4752 45.0798 7.52768C45.2372 7.58016 45.4621 7.6214 45.7545 7.65138C45.7695 7.77134 45.7695 7.89129 45.7545 8.01125C45.5296 8.01125 45.2784 8.0075 45.001 8C44.7311 7.9925 44.5025 7.98875 44.315 7.98875C44.1276 7.98875 43.8952 7.9925 43.6178 8C43.3479 8.0075 43.1043 8.01125 42.8868 8.01125C42.8644 7.89879 42.8644 7.77884 42.8868 7.65138C43.1567 7.6139 43.3667 7.58016 43.5166 7.55017C43.6665 7.51269 43.7753 7.46021 43.8427 7.39273C43.9102 7.31776 43.9514 7.20905 43.9664 7.06661C43.9889 6.92416 44.0002 6.72549 44.0002 6.47059V1.85986C44.0002 1.55998 43.9889 1.32382 43.9664 1.15138C43.9514 0.97895 43.9027 0.851499 43.8202 0.769031C43.7453 0.679065 43.6253 0.61534 43.4604 0.577854C43.3029 0.532872 43.0818 0.495386 42.7969 0.465398C42.7894 0.35294 42.7894 0.236735 42.7969 0.116781C43.0293 0.116781 43.2767 0.12053 43.5391 0.128027C43.8015 0.135524 44.0639 0.139272 44.3263 0.139272C44.3638 0.139272 44.465 0.139272 44.6299 0.139272C44.8024 0.139272 44.9523 0.135524 45.0798 0.128027L49.6455 6.13322V1.81488C49.6455 1.52999 49.638 1.30882 49.623 1.15138C49.6155 0.993944 49.5705 0.877739 49.4881 0.802767C49.3306 0.637831 48.952 0.532871 48.3522 0.487889C48.3298 0.360437 48.3298 0.240484 48.3522 0.128027C48.4947 0.128027 48.6634 0.131775 48.8583 0.139272C49.0607 0.139272 49.2556 0.143021 49.4431 0.150519C49.6305 0.150519 49.7842 0.150519 49.9041 0.150519C50.0916 0.150519 50.324 0.14677 50.6014 0.139272C50.8788 0.131775 51.1262 0.128027 51.3436 0.128027C51.3586 0.240484 51.3586 0.356689 51.3436 0.476643C50.9837 0.521626 50.7251 0.574105 50.5676 0.634082C50.4102 0.686563 50.3127 0.787774 50.2753 0.937716C50.2378 1.08766 50.219 1.33131 50.219 1.66868V8.02249C50.1441 8.03749 50.0428 8.04873 49.9154 8.05623C49.7879 8.07122 49.6755 8.07872 49.578 8.07872Z" fill="white"/>
<path d="M54.3203 8.01125C54.3053 7.89879 54.3053 7.77884 54.3203 7.65138C54.6801 7.6139 54.9388 7.58016 55.0962 7.55017C55.2537 7.51269 55.3511 7.43772 55.3886 7.32526C55.4261 7.2128 55.4448 7.02163 55.4448 6.75173V1.52249C55.4448 1.20761 55.4261 0.982698 55.3886 0.84775C55.3511 0.712802 55.2537 0.626585 55.0962 0.5891C54.9463 0.544117 54.6989 0.506632 54.354 0.476643C54.339 0.364186 54.339 0.244233 54.354 0.116781C54.5339 0.116781 54.6839 0.12053 54.8038 0.128027C54.9313 0.128027 55.0625 0.128027 55.1974 0.128027C55.3324 0.128027 55.5011 0.131775 55.7035 0.139272C55.9134 0.139272 56.1908 0.139272 56.5357 0.139272C56.963 0.139272 57.3978 0.139272 57.8402 0.139272C58.2825 0.131775 58.6911 0.128027 59.0659 0.128027C59.4483 0.128027 59.7557 0.128027 59.9881 0.128027C60.228 0.12053 60.3554 0.116781 60.3704 0.116781C60.4079 0.401672 60.4492 0.697808 60.4941 1.00519C60.5391 1.31257 60.5879 1.6387 60.6403 1.98356C60.5804 1.99106 60.5166 1.99481 60.4492 1.99481C60.3892 1.99481 60.3292 1.99106 60.2692 1.98356C60.0743 1.48126 59.8456 1.12889 59.5832 0.92647C59.3133 0.709054 58.8898 0.600345 58.3125 0.600345H56.6819V3.78287H57.4241C57.7839 3.78287 58.0576 3.76038 58.245 3.7154C58.4324 3.66292 58.5711 3.55421 58.6611 3.38927C58.7511 3.21684 58.8223 2.94694 58.8748 2.57958C59.0097 2.55709 59.1372 2.55709 59.2571 2.57958C59.2496 2.89446 59.2421 3.14562 59.2346 3.33304C59.2346 3.51298 59.2346 3.65542 59.2346 3.76038C59.2346 3.86534 59.2346 3.9628 59.2346 4.05277C59.2346 4.13524 59.2346 4.22895 59.2346 4.33391C59.2346 4.43887 59.2346 4.58506 59.2346 4.77249C59.2421 4.95992 59.2496 5.21482 59.2571 5.5372C59.1447 5.55969 59.0172 5.55969 58.8748 5.5372C58.8298 5.13985 58.7623 4.85496 58.6723 4.68253C58.5824 4.50259 58.4474 4.39014 58.2675 4.34516C58.0951 4.30017 57.8477 4.27768 57.5253 4.27768H56.6819V6.60554C56.6819 6.83795 56.6894 7.01788 56.7044 7.14533C56.7193 7.27278 56.7643 7.37399 56.8393 7.44896C56.9143 7.51644 57.0267 7.56142 57.1767 7.58391C57.3341 7.6064 57.559 7.62889 57.8514 7.65138C57.8739 7.77134 57.8739 7.89129 57.8514 8.01125C57.694 8.01125 57.5028 8.0075 57.2779 8C57.053 8 56.8281 8 56.6031 8C56.3857 7.9925 56.202 7.98875 56.0521 7.98875C55.9097 7.98875 55.7335 7.9925 55.5236 8C55.3136 8 55.1 8 54.8826 8C54.6726 8.0075 54.4852 8.01125 54.3203 8.01125ZM63.5127 1.3763V6.60554C63.5127 6.83795 63.5202 7.02163 63.5352 7.15657C63.5502 7.29152 63.5914 7.38898 63.6589 7.44896C63.7264 7.50894 63.8351 7.55392 63.985 7.58391C64.135 7.6064 64.3487 7.62889 64.6261 7.65138C64.6485 7.77134 64.6485 7.89129 64.6261 8.01125C64.4761 8.01125 64.2924 8.0075 64.075 8C63.8576 8 63.6402 8 63.4228 8C63.2128 7.9925 63.0367 7.98875 62.8942 7.98875C62.7518 7.98875 62.5718 7.9925 62.3544 8C62.1445 8 61.9308 8 61.7134 8C61.5035 8.0075 61.3161 8.01125 61.1511 8.01125C61.1286 7.89879 61.1286 7.77884 61.1511 7.65138C61.511 7.6139 61.7696 7.58016 61.9271 7.55017C62.0845 7.51269 62.182 7.43772 62.2195 7.32526C62.257 7.2128 62.2757 7.02163 62.2757 6.75173V1.52249C62.2757 1.20761 62.257 0.982698 62.2195 0.84775C62.182 0.712802 62.0845 0.626585 61.9271 0.5891C61.7696 0.544117 61.511 0.506632 61.1511 0.476643C61.1361 0.364186 61.1361 0.244233 61.1511 0.116781C61.3086 0.116781 61.496 0.12053 61.7134 0.128027C61.9383 0.128027 62.1595 0.131775 62.3769 0.139272C62.5943 0.139272 62.7743 0.139272 62.9167 0.139272C63.0592 0.139272 63.2353 0.139272 63.4453 0.139272C63.6552 0.131775 63.8688 0.128027 64.0863 0.128027C64.3037 0.12053 64.4836 0.116781 64.6261 0.116781C64.6485 0.229238 64.6485 0.349192 64.6261 0.476643C64.2737 0.506632 64.0188 0.540369 63.8613 0.577854C63.7039 0.61534 63.6064 0.690311 63.569 0.802767C63.5315 0.915225 63.5127 1.1064 63.5127 1.3763ZM71.9595 8.07872L66.9552 1.51125V6.32439C66.9552 6.60928 66.9627 6.83045 66.9777 6.98789C66.9927 7.13783 67.0377 7.25404 67.1127 7.33651C67.1876 7.41148 67.3038 7.4752 67.4613 7.52768C67.6187 7.58016 67.8436 7.6214 68.136 7.65138C68.151 7.77134 68.151 7.89129 68.136 8.01125C67.9111 8.01125 67.66 8.0075 67.3826 8C67.1127 7.9925 66.884 7.98875 66.6966 7.98875C66.5091 7.98875 66.2767 7.9925 65.9993 8C65.7294 8.0075 65.4858 8.01125 65.2684 8.01125C65.2459 7.89879 65.2459 7.77884 65.2684 7.65138C65.5383 7.6139 65.7482 7.58016 65.8981 7.55017C66.0481 7.51269 66.1568 7.46021 66.2243 7.39273C66.2917 7.31776 66.333 7.20905 66.348 7.06661C66.3704 6.92416 66.3817 6.72549 66.3817 6.47059V1.85986C66.3817 1.55998 66.3704 1.32382 66.348 1.15138C66.333 0.97895 66.2842 0.851499 66.2018 0.769031C66.1268 0.679065 66.0068 0.61534 65.8419 0.577854C65.6845 0.532872 65.4633 0.495386 65.1784 0.465398C65.1709 0.35294 65.1709 0.236735 65.1784 0.116781C65.4108 0.116781 65.6582 0.12053 65.9206 0.128027C66.183 0.135524 66.4454 0.139272 66.7078 0.139272C66.7453 0.139272 66.8465 0.139272 67.0114 0.139272C67.1839 0.139272 67.3338 0.135524 67.4613 0.128027L72.027 6.13322V1.81488C72.027 1.52999 72.0195 1.30882 72.0045 1.15138C71.997 0.993944 71.9521 0.877739 71.8696 0.802767C71.7121 0.637831 71.3335 0.532871 70.7338 0.487889C70.7113 0.360437 70.7113 0.240484 70.7338 0.128027C70.8762 0.128027 71.0449 0.131775 71.2398 0.139272C71.4422 0.139272 71.6372 0.143021 71.8246 0.150519C72.012 0.150519 72.1657 0.150519 72.2857 0.150519C72.4731 0.150519 72.7055 0.14677 72.9829 0.139272C73.2603 0.131775 73.5077 0.128027 73.7251 0.128027C73.7401 0.240484 73.7401 0.356689 73.7251 0.476643C73.3653 0.521626 73.1066 0.574105 72.9492 0.634082C72.7917 0.686563 72.6943 0.787774 72.6568 0.937716C72.6193 1.08766 72.6006 1.33131 72.6006 1.66868V8.02249C72.5256 8.03749 72.4244 8.04873 72.2969 8.05623C72.1695 8.07122 72.057 8.07872 71.9595 8.07872ZM73.48 8.01125C73.465 7.89129 73.465 7.77134 73.48 7.65138C73.6899 7.62889 73.8586 7.60265 73.9861 7.57266C74.1135 7.54268 74.2222 7.4902 74.3122 7.41522C74.4021 7.33276 74.4884 7.2128 74.5708 7.05536C74.6533 6.89043 74.7508 6.66176 74.8632 6.36938L77.2923 0.139272C77.3747 0.109284 77.4722 0.0867931 77.5847 0.0717986C77.7046 0.0568045 77.8058 0.0493075 77.8883 0.0493075L80.3061 6.47059C80.4111 6.74048 80.4973 6.95415 80.5648 7.11159C80.6322 7.26153 80.7072 7.37024 80.7897 7.43772C80.8722 7.50519 80.9771 7.55392 81.1046 7.58391C81.232 7.6064 81.4082 7.62889 81.6331 7.65138C81.6481 7.77134 81.6481 7.89129 81.6331 8.01125C81.3707 8.01125 81.1008 8.0075 80.8234 8C80.546 7.9925 80.2686 7.98875 79.9912 7.98875C79.7064 7.98875 79.4177 7.9925 79.1253 8C78.8404 8.0075 78.5555 8.01125 78.2707 8.01125C78.2482 7.89879 78.2482 7.77884 78.2707 7.65138C78.638 7.6139 78.8929 7.58016 79.0354 7.55017C79.1778 7.51269 79.249 7.42272 79.249 7.28028C79.249 7.2203 79.2378 7.15283 79.2153 7.07785C79.1928 7.00288 79.1628 6.90917 79.1253 6.79671L78.4843 5.06488H75.954L75.3918 6.61678C75.3393 6.75923 75.298 6.87918 75.2681 6.97664C75.2456 7.06661 75.2343 7.14908 75.2343 7.22405C75.2343 7.38898 75.3093 7.49394 75.4592 7.53893C75.6167 7.57641 75.8716 7.6139 76.2239 7.65138C76.2389 7.77884 76.2389 7.89879 76.2239 8.01125C75.969 8.01125 75.7179 8.0075 75.4705 8C75.2231 7.9925 74.9719 7.98875 74.717 7.98875C74.5071 7.98875 74.3047 7.9925 74.1098 8C73.9148 8.0075 73.7049 8.01125 73.48 8.01125ZM76.1227 4.59256H78.3156L77.2136 1.60121L76.1227 4.59256ZM88.3998 8.07872L83.3954 1.51125V6.32439C83.3954 6.60928 83.4029 6.83045 83.4179 6.98789C83.4329 7.13783 83.4779 7.25404 83.5529 7.33651C83.6278 7.41148 83.744 7.4752 83.9015 7.52768C84.0589 7.58016 84.2838 7.6214 84.5762 7.65138C84.5912 7.77134 84.5912 7.89129 84.5762 8.01125C84.3513 8.01125 84.1002 8.0075 83.8228 8C83.5529 7.9925 83.3242 7.98875 83.1368 7.98875C82.9494 7.98875 82.7169 7.9925 82.4395 8C82.1697 8.0075 81.926 8.01125 81.7086 8.01125C81.6861 7.89879 81.6861 7.77884 81.7086 7.65138C81.9785 7.6139 82.1884 7.58016 82.3383 7.55017C82.4883 7.51269 82.597 7.46021 82.6645 7.39273C82.7319 7.31776 82.7732 7.20905 82.7882 7.06661C82.8107 6.92416 82.8219 6.72549 82.8219 6.47059V1.85986C82.8219 1.55998 82.8107 1.32382 82.7882 1.15138C82.7732 0.97895 82.7244 0.851499 82.642 0.769031C82.567 0.679065 82.447 0.61534 82.2821 0.577854C82.1247 0.532872 81.9035 0.495386 81.6186 0.465398C81.6111 0.35294 81.6111 0.236735 81.6186 0.116781C81.851 0.116781 82.0984 0.12053 82.3608 0.128027C82.6232 0.135524 82.8856 0.139272 83.148 0.139272C83.1855 0.139272 83.2867 0.139272 83.4517 0.139272C83.6241 0.139272 83.774 0.135524 83.9015 0.128027L88.4672 6.13322V1.81488C88.4672 1.52999 88.4597 1.30882 88.4447 1.15138C88.4372 0.993944 88.3923 0.877739 88.3098 0.802767C88.1524 0.637831 87.7737 0.532871 87.174 0.487889C87.1515 0.360437 87.1515 0.240484 87.174 0.128027C87.3164 0.128027 87.4851 0.131775 87.68 0.139272C87.8825 0.139272 88.0774 0.143021 88.2648 0.150519C88.4522 0.150519 88.6059 0.150519 88.7259 0.150519C88.9133 0.150519 89.1457 0.14677 89.4231 0.139272C89.7005 0.131775 89.9479 0.128027 90.1653 0.128027C90.1803 0.240484 90.1803 0.356689 90.1653 0.476643C89.8055 0.521626 89.5468 0.574105 89.3894 0.634082C89.2319 0.686563 89.1345 0.787774 89.097 0.937716C89.0595 1.08766 89.0408 1.33131 89.0408 1.66868V8.02249C88.9658 8.03749 88.8646 8.04873 88.7371 8.05623C88.6097 8.07122 88.4972 8.07872 88.3998 8.07872ZM97.8233 5.67215C97.7333 6.33189 97.6658 7.00288 97.6209 7.68512C97.2085 7.80507 96.7887 7.91378 96.3613 8.01125C95.934 8.10871 95.4767 8.15744 94.9894 8.15744C94.1572 8.15744 93.4337 7.9925 92.819 7.66263C92.2117 7.33276 91.7394 6.87168 91.402 6.27941C91.0646 5.67964 90.8959 4.97491 90.8959 4.16522C90.8959 3.34804 91.0646 2.62832 91.402 2.00605C91.7394 1.3763 92.2154 0.885236 92.8302 0.532871C93.445 0.180507 94.1684 0.00432473 95.0006 0.00432473C95.308 0.00432473 95.5779 0.0230675 95.8103 0.0605531C96.0427 0.0980386 96.3239 0.154267 96.6537 0.229238C96.8037 0.259227 96.9349 0.289215 97.0473 0.319204C97.1598 0.349192 97.276 0.364186 97.3959 0.364186C97.4334 0.364186 97.4747 0.364186 97.5197 0.364186C97.5646 0.356689 97.6021 0.349192 97.6321 0.341695C97.6471 0.671568 97.6621 1.01269 97.6771 1.36505C97.6921 1.71742 97.7146 2.08477 97.7446 2.46713C97.5946 2.48962 97.4672 2.49712 97.3622 2.48962C97.0698 1.13264 96.3014 0.454152 95.0568 0.454152C94.5545 0.454152 94.1272 0.555363 93.7748 0.757785C93.4225 0.95271 93.1376 1.22261 92.9202 1.56747C92.7028 1.90484 92.5453 2.2872 92.4479 2.71453C92.3504 3.14187 92.3017 3.58795 92.3017 4.05277C92.3017 4.71251 92.3991 5.31978 92.594 5.87457C92.789 6.42935 93.0964 6.87168 93.5162 7.20156C93.936 7.53143 94.4758 7.69637 95.1356 7.69637C95.7578 7.69637 96.2526 7.53143 96.62 7.20156C96.9949 6.87168 97.2647 6.35813 97.4297 5.6609C97.4897 5.6609 97.5496 5.6609 97.6096 5.6609C97.6771 5.6609 97.7483 5.66465 97.8233 5.67215ZM98.8096 8.01125C98.7946 7.89879 98.7946 7.77884 98.8096 7.65138C99.1619 7.6139 99.4131 7.58016 99.563 7.55017C99.713 7.51269 99.8067 7.43772 99.8442 7.32526C99.8816 7.20531 99.9004 7.01413 99.9004 6.75173V1.52249C99.9004 1.20761 99.8816 0.982698 99.8442 0.84775C99.8067 0.712802 99.7092 0.626585 99.5518 0.5891C99.4018 0.544117 99.1544 0.506632 98.8096 0.476643C98.7946 0.364186 98.7946 0.244233 98.8096 0.116781C99.0045 0.116781 99.1732 0.12053 99.3156 0.128027C99.4656 0.128027 99.6155 0.128027 99.7654 0.128027C99.9154 0.128027 100.095 0.131775 100.305 0.139272C100.515 0.139272 100.781 0.139272 101.104 0.139272C101.696 0.139272 102.251 0.139272 102.768 0.139272C103.285 0.131775 103.716 0.128027 104.061 0.128027C104.406 0.12053 104.609 0.116781 104.669 0.116781C104.699 0.394175 104.732 0.679065 104.77 0.971453C104.815 1.26384 104.863 1.57497 104.916 1.90484C104.789 1.91984 104.665 1.91984 104.545 1.90484C104.455 1.67993 104.35 1.48126 104.23 1.30882C104.11 1.13639 103.986 1.00519 103.859 0.915224C103.716 0.810264 103.544 0.731545 103.342 0.679065C103.147 0.626585 102.903 0.600345 102.611 0.600345H101.137V3.67041H101.756C102.116 3.67041 102.389 3.64792 102.577 3.60294C102.764 3.55046 102.903 3.44175 102.993 3.27682C103.083 3.10438 103.154 2.83449 103.207 2.46713C103.342 2.44464 103.469 2.44464 103.589 2.46713C103.581 2.797 103.574 3.0519 103.566 3.23183C103.566 3.40427 103.566 3.53172 103.566 3.61419C103.566 3.69665 103.566 3.76413 103.566 3.81661C103.566 3.86159 103.566 3.89908 103.566 3.92907L103.589 5.41349C103.477 5.43599 103.349 5.43599 103.207 5.41349C103.162 5.01615 103.094 4.73126 103.004 4.55882C102.914 4.38639 102.779 4.27768 102.599 4.2327C102.427 4.18772 102.18 4.16522 101.857 4.16522H101.137V6.60554C101.137 6.86044 101.137 7.06661 101.137 7.22405C101.145 7.37399 101.152 7.47145 101.16 7.51644H102.701C103.075 7.51644 103.375 7.48645 103.6 7.42647C103.833 7.359 104.024 7.26153 104.174 7.13408C104.279 7.05161 104.402 6.90917 104.545 6.70675C104.687 6.49683 104.822 6.25692 104.95 5.98702C105.07 5.97203 105.186 5.97203 105.298 5.98702C105.223 6.40686 105.16 6.78547 105.107 7.12284C105.055 7.46021 105.01 7.7526 104.972 8C104.635 8 104.267 8 103.87 8C103.473 8 103.075 8 102.678 8C102.281 7.9925 101.917 7.98875 101.587 7.98875C101.265 7.98875 101.006 7.98875 100.811 7.98875C100.459 7.98875 100.17 7.9925 99.9454 8C99.728 8 99.533 8 99.3606 8C99.1957 8.0075 99.012 8.01125 98.8096 8.01125Z" fill="#F4D35E"/>
</svg>
